<?xml version="1.0" encoding="utf-8"?>
<!-- Generator: Adobe Illustrator 27.8.1, SVG Export Plug-In . SVG Version: 6.00 Build 0)  -->
<svg version="1.1" id="Layer_1" xmlns="http://www.w3.org/2000/svg" xmlns:xlink="http://www.w3.org/1999/xlink" x="0px" y="0px"
	 viewBox="0 0 30.1 30" style="enable-background:new 0 0 30.1 30;" xml:space="preserve">
<style type="text/css">
	.st0{fill:url(#SVGID_1_);}
	.st1{fill:url(#SVGID_00000046328069030397621520000001049831450485332388_);}
	.st2{fill:url(#SVGID_00000006672170797240648400000017310847771235874206_);}
	.st3{fill:url(#SVGID_00000086666569280918700710000003490051300526466227_);}
	.st4{fill:url(#SVGID_00000136397350658558854100000001808392647513104789_);}
</style>
<g>
	<linearGradient id="SVGID_1_" gradientUnits="userSpaceOnUse" x1="18.7125" y1="-10.8696" x2="18.7125" y2="37.2792">
		<stop  offset="0" style="stop-color:#7B3AA8"/>
		<stop  offset="0.1002" style="stop-color:#7E39A4"/>
		<stop  offset="0.1903" style="stop-color:#863599"/>
		<stop  offset="0.2765" style="stop-color:#932F87"/>
		<stop  offset="0.3603" style="stop-color:#A6276D"/>
		<stop  offset="0.4425" style="stop-color:#BE1C4C"/>
		<stop  offset="0.5222" style="stop-color:#DC0F24"/>
		<stop  offset="0.5635" style="stop-color:#ED070C"/>
		<stop  offset="0.5908" style="stop-color:#ED0D0F"/>
		<stop  offset="0.6288" style="stop-color:#ED1F19"/>
		<stop  offset="0.6729" style="stop-color:#ED3D28"/>
		<stop  offset="0.7218" style="stop-color:#EE663E"/>
		<stop  offset="0.7745" style="stop-color:#EE9B5A"/>
		<stop  offset="0.8296" style="stop-color:#EFDA7C"/>
		<stop  offset="0.8378" style="stop-color:#EFE481"/>
	</linearGradient>
	<path 
	style="fill:url(#SVGID_1_);" 
	 d="M14.9,8.2l1.4,1.4l4,4l2.5-2.5c0.8-0.9,1.9-1.4,3.1-1.5L20.3,4l-2.4-2.4L17.3,1c-0.7-0.7-1.5-1-2.4-1
		c-0.9,0-1.7,0.3-2.4,1c-1.3,1.3-1.3,3.5,0,4.8L14.9,8.2z"/>
	
		<linearGradient id="SVGID_00000033341677690405189900000015669015550395162552_" gradientUnits="userSpaceOnUse" x1="6.75" y1="-10.8696" x2="6.75" y2="37.2792">
		<stop  offset="0" style="stop-color:#7B3AA8"/>
		<stop  offset="0.1002" style="stop-color:#7E39A4"/>
		<stop  offset="0.1903" style="stop-color:#863599"/>
		<stop  offset="0.2765" style="stop-color:#932F87"/>
		<stop  offset="0.3603" style="stop-color:#A6276D"/>
		<stop  offset="0.4425" style="stop-color:#BE1C4C"/>
		<stop  offset="0.5222" style="stop-color:#DC0F24"/>
		<stop  offset="0.5635" style="stop-color:#ED070C"/>
		<stop  offset="0.5908" style="stop-color:#ED0D0F"/>
		<stop  offset="0.6288" style="stop-color:#ED1F19"/>
		<stop  offset="0.6729" style="stop-color:#ED3D28"/>
		<stop  offset="0.7218" style="stop-color:#EE663E"/>
		<stop  offset="0.7745" style="stop-color:#EE9B5A"/>
		<stop  offset="0.8296" style="stop-color:#EFDA7C"/>
		<stop  offset="0.8378" style="stop-color:#EFE481"/>
	</linearGradient>
	<path style="fill:url(#SVGID_00000033341677690405189900000015669015550395162552_);" d="M8.1,15l1.4-1.4l4-4l-2.4-2.4
		c-0.9-0.9-1.4-2-1.5-3.3L3.8,9.6L1,12.5c-0.1,0.1-0.2,0.2-0.3,0.4C0.6,13,0.5,13,0.5,13.1c0,0.1-0.1,0.1-0.1,0.2
		c-0.3,0.5-0.4,1-0.4,1.6c0,0.9,0.3,1.7,1,2.4c1.3,1.3,3.5,1.3,4.8,0L8.1,15z"/>
	
		<linearGradient id="SVGID_00000121973922942032136600000017429745035652171173_" gradientUnits="userSpaceOnUse" x1="23.25" y1="-10.8696" x2="23.25" y2="37.2792">
		<stop  offset="0" style="stop-color:#7B3AA8"/>
		<stop  offset="0.1002" style="stop-color:#7E39A4"/>
		<stop  offset="0.1903" style="stop-color:#863599"/>
		<stop  offset="0.2765" style="stop-color:#932F87"/>
		<stop  offset="0.3603" style="stop-color:#A6276D"/>
		<stop  offset="0.4425" style="stop-color:#BE1C4C"/>
		<stop  offset="0.5222" style="stop-color:#DC0F24"/>
		<stop  offset="0.5635" style="stop-color:#ED070C"/>
		<stop  offset="0.5908" style="stop-color:#ED0D0F"/>
		<stop  offset="0.6288" style="stop-color:#ED1F19"/>
		<stop  offset="0.6729" style="stop-color:#ED3D28"/>
		<stop  offset="0.7218" style="stop-color:#EE663E"/>
		<stop  offset="0.7745" style="stop-color:#EE9B5A"/>
		<stop  offset="0.8296" style="stop-color:#EFDA7C"/>
		<stop  offset="0.8378" style="stop-color:#EFE481"/>
	</linearGradient>
	<path style="fill:url(#SVGID_00000121973922942032136600000017429745035652171173_);" d="M29.1,12.5c-0.1-0.1-0.2-0.2-0.3-0.3
		c-0.1-0.1-0.2-0.2-0.4-0.2c-0.2-0.1-0.3-0.2-0.5-0.2c-0.3-0.1-0.7-0.2-1.1-0.2c-0.9,0-1.8,0.3-2.5,1L21.8,15l-1.4,1.4l-4,4l2.4,2.4
		c0.9,0.9,1.4,2.1,1.6,3.3l5.7-5.7l3-3c0.7-0.7,1-1.5,1-2.4S29.7,13.2,29.1,12.5z"/>
	
		<linearGradient id="SVGID_00000163053607140377563230000011371557484571672198_" gradientUnits="userSpaceOnUse" x1="11.1375" y1="-10.8696" x2="11.1375" y2="37.2792">
		<stop  offset="0" style="stop-color:#7B3AA8"/>
		<stop  offset="0.1002" style="stop-color:#7E39A4"/>
		<stop  offset="0.1903" style="stop-color:#863599"/>
		<stop  offset="0.2765" style="stop-color:#932F87"/>
		<stop  offset="0.3603" style="stop-color:#A6276D"/>
		<stop  offset="0.4425" style="stop-color:#BE1C4C"/>
		<stop  offset="0.5222" style="stop-color:#DC0F24"/>
		<stop  offset="0.5635" style="stop-color:#ED070C"/>
		<stop  offset="0.5908" style="stop-color:#ED0D0F"/>
		<stop  offset="0.6288" style="stop-color:#ED1F19"/>
		<stop  offset="0.6729" style="stop-color:#ED3D28"/>
		<stop  offset="0.7218" style="stop-color:#EE663E"/>
		<stop  offset="0.7745" style="stop-color:#EE9B5A"/>
		<stop  offset="0.8296" style="stop-color:#EFDA7C"/>
		<stop  offset="0.8378" style="stop-color:#EFE481"/>
	</linearGradient>
	<path style="fill:url(#SVGID_00000163053607140377563230000011371557484571672198_);" d="M15,21.8l-1.4-1.4l-4-4l-2.3,2.3
		c-0.9,0.9-2.1,1.5-3.4,1.6l5.9,5.9l2.9,2.9c0.7,0.7,1.5,1,2.4,1c0.6,0,1.2-0.2,1.7-0.5l0.1-0.1c0.2-0.1,0.4-0.3,0.5-0.4
		c1.3-1.3,1.3-3.5,0-4.8L15,21.8z"/>
	
		<linearGradient id="SVGID_00000157277522284078657560000013837370176982470537_" gradientUnits="userSpaceOnUse" x1="15" y1="-10.8696" x2="15" y2="37.2792">
		<stop  offset="0" style="stop-color:#7B3AA8"/>
		<stop  offset="0.1002" style="stop-color:#7E39A4"/>
		<stop  offset="0.1903" style="stop-color:#863599"/>
		<stop  offset="0.2765" style="stop-color:#932F87"/>
		<stop  offset="0.3603" style="stop-color:#A6276D"/>
		<stop  offset="0.4425" style="stop-color:#BE1C4C"/>
		<stop  offset="0.5222" style="stop-color:#DC0F24"/>
		<stop  offset="0.5635" style="stop-color:#ED070C"/>
		<stop  offset="0.5908" style="stop-color:#ED0D0F"/>
		<stop  offset="0.6288" style="stop-color:#ED1F19"/>
		<stop  offset="0.6729" style="stop-color:#ED3D28"/>
		<stop  offset="0.7218" style="stop-color:#EE663E"/>
		<stop  offset="0.7745" style="stop-color:#EE9B5A"/>
		<stop  offset="0.8296" style="stop-color:#EFDA7C"/>
		<stop  offset="0.8378" style="stop-color:#EFE481"/>
	</linearGradient>
	<path style="fill:url(#SVGID_00000157277522284078657560000013837370176982470537_);" d="M14.4,11.5l-2.9,2.9
		c-0.3,0.3-0.3,0.9,0,1.2l2.9,2.9c0.3,0.3,0.9,0.3,1.2,0l2.9-2.9c0.3-0.3,0.3-0.9,0-1.2l-2.9-2.9C15.3,11.2,14.7,11.2,14.4,11.5z"/>
</g>
</svg>
