<?xml version="1.0" encoding="utf-8"?>
<!-- Generator: Adobe Illustrator 27.8.1, SVG Export Plug-In . SVG Version: 6.00 Build 0)  -->
<svg version="1.1" id="Layer_1" xmlns="http://www.w3.org/2000/svg" xmlns:xlink="http://www.w3.org/1999/xlink" x="0px" y="0px"
	 viewBox="0 0 30.1 30" style="enable-background:new 0 0 30.1 30;" xml:space="preserve">
<style type="text/css">
	.st0{fill:#2D2D2D;}
	.st1{fill:#ABC066;}
</style>
<g>
	<path class="st1" d="M14.9,8.2l1.4,1.4l4,4l2.5-2.5c0.8-0.9,1.9-1.4,3.1-1.5L20.3,4l-2.4-2.4L17.3,1c-0.7-0.7-1.5-1-2.4-1
		c-0.9,0-1.7,0.3-2.4,1c-1.3,1.3-1.3,3.5,0,4.8L14.9,8.2z"/>
	<path class="st1" d="M8.1,15l1.4-1.4l4-4l-2.4-2.4c-0.9-0.9-1.4-2-1.5-3.3L3.8,9.6L1,12.5c-0.1,0.1-0.2,0.2-0.3,0.4
		C0.6,13,0.5,13,0.5,13.1c0,0.1-0.1,0.1-0.1,0.2c-0.3,0.5-0.4,1-0.4,1.6c0,0.9,0.3,1.7,1,2.4c1.3,1.3,3.5,1.3,4.8,0L8.1,15z"/>
	<path class="st1" d="M29.1,12.5c-0.1-0.1-0.2-0.2-0.3-0.3c-0.1-0.1-0.2-0.2-0.4-0.2c-0.2-0.1-0.3-0.2-0.5-0.2
		c-0.3-0.1-0.7-0.2-1.1-0.2c-0.9,0-1.8,0.3-2.5,1L21.8,15l-1.4,1.4l-4,4l2.4,2.4c0.9,0.9,1.4,2.1,1.6,3.3l0,0v0l5.7-5.7l3-3
		c0.7-0.7,1-1.5,1-2.4C30.1,14.1,29.7,13.2,29.1,12.5z"/>
	<path class="st1" d="M15,21.8l-1.4-1.4l-4-4l-2.3,2.3c-0.9,0.9-2.1,1.5-3.4,1.6l5.9,5.9l2.9,2.9c0.7,0.7,1.5,1,2.4,1
		c0.6,0,1.2-0.2,1.7-0.5h0c0,0,0,0,0,0c0,0,0.1-0.1,0.1-0.1c0.2-0.1,0.4-0.3,0.5-0.4c1.3-1.3,1.3-3.5,0-4.8L15,21.8z"/>
	<path class="st1" d="M14.4,11.5l-2.9,2.9c-0.3,0.3-0.3,0.9,0,1.2l2.9,2.9c0.3,0.3,0.9,0.3,1.2,0l2.9-2.9c0.3-0.3,0.3-0.9,0-1.2
		l-2.9-2.9C15.3,11.2,14.7,11.2,14.4,11.5z"/>
</g>
</svg>
