<svg width="24" height="24" viewBox="0 0 24 24" fill="none" xmlns="http://www.w3.org/2000/svg">
<path d="M20.35 8.92306L19.9838 8.71933C19.9269 8.6877 19.8984 8.67182 19.871 8.65537C19.5979 8.49178 19.3679 8.26535 19.1999 7.99495C19.183 7.96774 19.1664 7.93962 19.1338 7.88323L19.1337 7.88301C19.1012 7.82669 19.0848 7.79837 19.0697 7.77011C18.919 7.48879 18.8379 7.17554 18.8331 6.85644C18.8326 6.82765 18.8331 6.79819 18.834 6.74535L18.8343 6.7263L18.8414 6.3093C18.8529 5.62327 18.8586 5.2803 18.7626 4.97275C18.6776 4.70067 18.5357 4.44983 18.3459 4.23715C18.1317 3.99717 17.8348 3.82607 17.2424 3.48467L17.2393 3.48289L16.7455 3.19834C16.1526 2.85671 15.8561 2.68596 15.5414 2.62082C15.2629 2.56319 14.9754 2.5655 14.698 2.62778C14.3851 2.698 14.0926 2.87316 13.5086 3.22288L13.5041 3.22556L13.1503 3.43742C13.0943 3.47092 13.066 3.48763 13.038 3.50322C12.7597 3.65794 12.4485 3.74403 12.1303 3.75424C12.0982 3.75527 12.0656 3.75527 12.0004 3.75527H11.9995C11.9347 3.75527 11.9025 3.75527 11.8705 3.75424C11.5516 3.74399 11.2394 3.65751 10.9607 3.50215C10.9336 3.48706 10.9067 3.47091 10.8546 3.43964L10.8486 3.43603L10.4925 3.22226L10.4899 3.22065C9.9023 2.86791 9.60823 2.69137 9.29382 2.62082C9.01525 2.55832 8.72629 2.55622 8.44683 2.6146C8.13092 2.68058 7.83353 2.85316 7.239 3.19821L6.75134 3.48125C6.1599 3.82451 5.8646 3.99607 5.65124 4.23622C5.46248 4.44868 5.32109 4.69894 5.23664 4.97031C5.14119 5.27704 5.14657 5.61897 5.15807 6.30271L5.16522 6.72737C5.1663 6.79167 5.16702 6.82385 5.16655 6.85548C5.16182 7.17522 5.0804 7.48915 4.92929 7.77097C4.91434 7.79884 4.89824 7.82671 4.86608 7.88238C4.8339 7.93809 4.81783 7.96588 4.80114 7.99277C4.63242 8.26462 4.40094 8.49211 4.12613 8.65598C4.09895 8.67219 4.07104 8.68777 4.01476 8.71897L3.65319 8.91933L3.65307 8.9194C3.05158 9.25272 2.7509 9.41936 2.5321 9.65675C2.33853 9.86678 2.19195 10.1159 2.10269 10.3872C2.00192 10.6935 2.0027 11.0369 2.00426 11.7229L2.00427 11.7256L2.00554 12.2877L2.00556 12.2938C2.0071 12.9729 2.00787 13.3134 2.1087 13.6171C2.19816 13.8866 2.344 14.1339 2.53649 14.3426C2.75383 14.5783 3.05212 14.7443 3.64782 15.0757L3.64977 15.0768L4.00811 15.2761L4.01309 15.2789C4.07079 15.311 4.10054 15.3275 4.12914 15.3447C4.40145 15.5087 4.63043 15.7353 4.79772 16.0056C4.81579 16.0348 4.83314 16.0651 4.86781 16.1257L4.86784 16.1257C4.9021 16.1856 4.91943 16.2155 4.93528 16.2455C5.08195 16.5232 5.16121 16.8315 5.16657 17.1455C5.16715 17.1794 5.16661 17.214 5.16544 17.2829L5.15856 17.6905L5.15854 17.692C5.14697 18.377 5.14119 18.7198 5.23713 19.0271C5.32208 19.2992 5.46438 19.55 5.65417 19.7627C5.86869 20.0031 6.1656 20.1745 6.76013 20.5171L7.25383 20.8016C7.84668 21.1432 8.14354 21.3139 8.45828 21.3791C8.73673 21.4367 9.02419 21.4343 9.30163 21.372C9.61457 21.3018 9.90718 21.1266 10.4917 20.7766L10.4955 20.7743L10.8493 20.5625C10.9053 20.529 10.9334 20.5123 10.9615 20.4967C11.2398 20.342 11.5508 20.2558 11.869 20.2456C11.9011 20.2446 11.9337 20.2446 11.9989 20.2446C12.0643 20.2446 12.0975 20.2446 12.1296 20.2456C12.4485 20.2559 12.7602 20.3423 13.0389 20.4977C13.067 20.5133 13.0952 20.5302 13.1512 20.5638L13.5073 20.7776L13.508 20.778C14.0969 21.1315 14.3913 21.3083 14.7061 21.3789C14.9847 21.4414 15.2731 21.4437 15.5526 21.3853C15.8685 21.3193 16.1661 21.1467 16.7606 20.8017L17.2483 20.5186C17.8397 20.1754 18.1351 20.0038 18.3484 19.7636C18.5372 19.5512 18.6786 19.3009 18.7631 19.0296C18.8585 18.7228 18.853 18.381 18.8415 17.6972L18.8343 17.2726L18.834 17.251C18.8331 17.2007 18.8326 17.1724 18.833 17.1445C18.8378 16.8248 18.9191 16.5108 19.0702 16.2289C19.0851 16.2011 19.1012 16.1732 19.1333 16.1177L19.1334 16.1175C19.1656 16.0618 19.1819 16.0339 19.1986 16.0071C19.3674 15.7352 19.5986 15.5078 19.8734 15.344C19.8997 15.3283 19.9271 15.3131 19.9797 15.284L19.9852 15.2809L20.3468 15.0805C20.9484 14.7472 21.2489 14.5805 21.4677 14.3431C21.6613 14.1331 21.8076 13.8841 21.8968 13.6127C21.9977 13.306 21.9973 12.9621 21.9958 12.2744L21.9945 11.7123C21.993 11.0291 21.9921 10.6874 21.891 10.3828C21.8015 10.1133 21.6556 9.86598 21.4631 9.65722C21.2455 9.42125 20.947 9.25518 20.35 8.92306Z" stroke="#14181F" stroke-width="2" stroke-linecap="round" stroke-linejoin="round"/>
</svg>
